<?xml version="1.0" encoding="UTF-8"?>
<svg id="Camada_2" data-name="Camada 2" xmlns="http://www.w3.org/2000/svg" viewBox="0 0 666.67 666.67">
  <defs>
    <style>
      .cls-1 {
        fill: #ce2121;
        fill-rule: evenodd;
      }
    </style>
  </defs>
  <g id="Camada_1-2" data-name="Camada 1">
    <path class="cls-1" d="M333.33,666.67c-157.13,0-235.7,0-284.52-48.82C0,569.04,0,490.47,0,333.33S0,97.63,48.82,48.82C97.63,0,176.2,0,333.33,0s235.7,0,284.52,48.82c48.82,48.82,48.82,127.38,48.82,284.52s0,235.7-48.82,284.52c-48.81,48.82-127.38,48.82-284.52,48.82ZM467.68,232.32c9.76,9.76,9.76,25.59,0,35.35l-166.67,166.67c-9.76,9.76-25.59,9.76-35.35,0l-66.67-66.67c-9.76-9.76-9.76-25.59,0-35.35,9.76-9.76,25.59-9.76,35.36,0l48.99,48.99,148.99-148.99c9.76-9.76,25.59-9.76,35.35,0Z"/>
  </g>
</svg>