<?xml version="1.0" encoding="UTF-8"?>
<svg id="Camada_2" data-name="Camada 2" xmlns="http://www.w3.org/2000/svg" viewBox="0 0 666.67 666.67">
  <defs>
    <style>
      .cls-1 {
        fill: #ce2121;
        fill-rule: evenodd;
      }
    </style>
  </defs>
  <g id="Camada_1-2" data-name="Camada 1">
    <path class="cls-1" d="M300,366.67c0,18.41,14.92,33.33,33.33,33.33s33.33-14.92,33.33-33.33v-166.67c0-18.41-14.92-33.33-33.33-33.33s-33.33,14.92-33.33,33.33v166.67ZM366.67,466.29c0-18.41-14.92-33.33-33.33-33.33s-33.33,14.92-33.33,33.33v.37c0,18.41,14.92,33.33,33.33,33.33s33.33-14.92,33.33-33.33v-.37ZM175,12.93C218.29,3.31,270.81,0,333.33,0s115.04,3.31,158.33,12.93c43.67,9.71,79.96,26.27,107.88,54.19,27.92,27.92,44.49,64.21,54.19,107.88,9.62,43.29,12.93,95.81,12.93,158.33s-3.31,115.04-12.93,158.33c-9.71,43.67-26.27,79.96-54.19,107.88-27.92,27.92-64.21,44.49-107.88,54.19-43.29,9.62-95.81,12.93-158.33,12.93s-115.04-3.31-158.33-12.93c-43.67-9.71-79.96-26.27-107.88-54.19-27.92-27.92-44.49-64.21-54.19-107.88C3.31,448.37,0,395.86,0,333.33s3.31-115.04,12.93-158.33c9.71-43.67,26.27-79.96,54.19-107.88,27.92-27.92,64.21-44.49,107.88-54.19Z"/>
  </g>
</svg>